<svg width="55" height="55" viewBox="0 0 55 55" fill="none" xmlns="http://www.w3.org/2000/svg">
<path d="M54.9467 14.6988C54.7044 20.0613 50.9609 27.4106 43.7284 36.7194C36.2433 46.4595 29.9252 51.3219 24.7328 51.3219C21.5016 51.3219 18.8255 48.3587 16.5859 42.4325L12.1911 26.1198C10.5462 20.2022 8.78969 17.2391 6.9025 17.2391C6.49 17.2391 5.04797 18.0984 2.58672 19.8258L0 16.4863C2.71391 14.0955 5.39 11.715 8.02141 9.32422C11.6377 6.18235 14.3602 4.54438 16.1683 4.37422C20.4462 3.96172 23.0777 6.89906 24.0728 13.1656C25.1384 19.9323 25.8723 24.1398 26.2934 25.7881C27.5292 31.3998 28.887 34.2117 30.3652 34.2117C31.5116 34.2117 33.2389 32.3847 35.5575 28.7409C37.8589 25.0972 39.0844 22.3317 39.2442 20.4239C39.5759 17.2906 38.3384 15.7059 35.5472 15.7059C34.2323 15.7059 32.8711 15.9861 31.472 16.6014C34.1945 7.73953 39.3422 3.40656 46.9683 3.68328C52.635 3.81906 55.2853 7.49719 54.9708 14.6764L54.9467 14.6988Z" fill="#FF6B00"/>
</svg>
