<svg width="45" height="45" viewBox="0 0 45 45" fill="none" xmlns="http://www.w3.org/2000/svg">
<path d="M23.7938 22.6125C23.4492 22.9235 23.0016 23.0956 22.5375 23.0956C22.0734 23.0956 21.6258 22.9235 21.2813 22.6125L5.38126 8.15625C6.00518 7.72886 6.74374 7.5001 7.50001 7.5H37.5C38.2563 7.5001 38.9948 7.72886 39.6188 8.15625L23.7938 22.6125Z" fill="white"/>
<path d="M41.25 11.7375V31.875C41.25 33.3669 40.6574 34.7976 39.6025 35.8525C38.5476 36.9074 37.1168 37.5 35.625 37.5H9.375C7.88316 37.5 6.45242 36.9074 5.39752 35.8525C4.34263 34.7976 3.75 33.3669 3.75 31.875V11.7375L20.025 26.5875C20.7114 27.1837 21.5909 27.5102 22.5 27.5063C23.4204 27.5044 24.308 27.164 24.9937 26.55L41.25 11.7375Z" fill="white"/>
</svg>
