<svg width="55" height="55" viewBox="0 0 55 55" fill="none" xmlns="http://www.w3.org/2000/svg">
<path d="M27.4901 52.2069C26.8331 52.2069 26.1664 52.0306 25.5879 51.6971L19.538 48.1183C18.636 47.6083 19.0772 47.4319 19.3714 47.3337C20.5773 46.9121 20.8224 46.824 22.1069 46.0885C22.2443 46.0102 22.4208 46.0394 22.5579 46.1278L27.2057 48.883C27.3724 48.981 27.6075 48.981 27.7645 48.883L45.8749 38.4304C46.0418 38.3323 46.1494 38.1363 46.1494 37.9402V17.0353C46.1494 16.8294 46.0418 16.6431 45.8653 16.5354L27.7646 6.09255C27.598 5.99448 27.3725 5.99448 27.2058 6.09255L9.11496 16.545C8.93835 16.6431 8.83061 16.8391 8.83061 17.0451V37.9402C8.83061 38.1363 8.93835 38.3323 9.11496 38.4207L14.0766 41.2839C16.7731 42.6271 18.4203 41.0485 18.4203 39.4504V18.8198C18.4203 18.5257 18.6555 18.3002 18.9499 18.3002H21.2443C21.5286 18.3002 21.7737 18.5257 21.7737 18.8198V39.4602C21.7737 43.0488 19.8126 45.108 16.4103 45.108C15.361 45.108 14.5374 45.108 12.243 43.9706L7.49718 41.2349C6.32048 40.5582 5.59496 39.2933 5.59496 37.9306V17.0353C5.59496 15.6822 6.32048 14.4075 7.49718 13.731L25.5879 3.27842C26.735 2.63131 28.255 2.63131 29.3923 3.27842L47.503 13.7407C48.6796 14.4172 49.4051 15.6821 49.4051 17.0451V37.9402C49.4051 39.2933 48.6796 40.5582 47.503 41.2446L29.3923 51.6971C28.8138 52.0306 28.1567 52.2069 27.4901 52.2069ZM42.11 31.6061C42.11 27.6937 39.4625 26.6544 33.903 25.9191C28.2745 25.1738 27.7059 24.7914 27.7059 23.4775C27.7059 22.3892 28.1864 20.9379 32.3536 20.9379C36.07 20.9379 37.4428 21.742 38.0113 24.2522C38.0604 24.4875 38.2763 24.664 38.5212 24.664H40.8748C41.0216 24.664 41.1589 24.6052 41.2571 24.4973C41.3553 24.3895 41.4041 24.2423 41.3941 24.0952C41.0315 19.7712 38.1584 17.761 32.3536 17.761C27.1863 17.761 24.1075 19.9378 24.1075 23.5952C24.1075 27.5565 27.1764 28.6549 32.1281 29.1449C38.0604 29.7235 38.5212 30.5962 38.5212 31.7631C38.5212 33.7831 36.8937 34.6457 33.0794 34.6457C28.2846 34.6457 27.2353 33.4397 26.8823 31.0572C26.8431 30.8023 26.6273 30.616 26.3627 30.616H24.0191C23.725 30.616 23.4996 30.8514 23.4996 31.1355C23.4996 34.1852 25.1567 37.8229 33.0893 37.8229C38.8154 37.8131 42.11 35.5476 42.11 31.6061Z" fill="#FF6B00"/>
</svg>
