<svg width="55" height="55" viewBox="0 0 55 55" fill="none" xmlns="http://www.w3.org/2000/svg">
<path d="M27.5 22.5982C26.8563 22.5982 26.2189 22.725 25.6241 22.9713C25.0294 23.2177 24.489 23.5787 24.0339 24.0339C23.5787 24.4891 23.2176 25.0295 22.9713 25.6242C22.7249 26.2189 22.5981 26.8563 22.5981 27.5001C22.5981 28.1438 22.7249 28.7812 22.9713 29.3759C23.2176 29.9706 23.5787 30.511 24.0339 30.9662C24.489 31.4214 25.0294 31.7825 25.6241 32.0288C26.2189 32.2751 26.8563 32.4019 27.5 32.4019C28.1437 32.4019 28.7811 32.2751 29.3759 32.0288C29.9706 31.7825 30.511 31.4214 30.9662 30.9662C31.4213 30.511 31.7824 29.9706 32.0287 29.3759C32.2751 28.7812 32.4019 28.1438 32.4019 27.5001C32.4019 26.8563 32.2751 26.2189 32.0287 25.6242C31.7824 25.0295 31.4213 24.4891 30.9662 24.0339C30.511 23.5787 29.9706 23.2177 29.3759 22.9713C28.7811 22.725 28.1437 22.5982 27.5 22.5982ZM13.7683 37.2511L12.6867 36.9761C4.62458 34.9388 0 31.4807 0 27.4909C0 23.5011 4.62458 20.043 12.6867 18.0057L13.7683 17.733L14.0731 18.8055C14.8898 21.619 15.9345 24.3613 17.1967 27.0051L17.4281 27.4932L17.1967 27.9813C15.9324 30.6242 14.8877 33.3667 14.0731 36.1809L13.7683 37.2511ZM12.1848 20.5105C6.05687 22.2315 2.29625 24.8646 2.29625 27.4909C2.29625 30.1149 6.05687 32.748 12.1848 34.4713C12.9342 32.0878 13.8391 29.756 14.8935 27.4909C13.8379 25.2263 12.933 22.8944 12.1848 20.5105ZM41.2317 37.2511L40.9269 36.1763C40.111 33.3629 39.0655 30.6213 37.801 27.979L37.5696 27.4909L37.801 27.0028C39.0651 24.3595 40.1105 21.6171 40.9269 18.8032L41.2317 17.7307L42.3156 18.0034C50.3754 20.0407 55 23.4988 55 27.4909C55 31.483 50.3754 34.9388 42.3156 36.9761L41.2317 37.2511ZM40.1065 27.4909C41.2065 29.8719 42.1163 32.2117 42.8152 34.4713C48.9454 32.748 52.7038 30.1149 52.7038 27.4909C52.7038 24.8646 48.9431 22.2338 42.8152 20.5105C42.0668 22.8943 41.1619 25.2262 40.1065 27.4909ZM12.1688 20.499L11.864 19.4288C9.5975 11.4401 10.285 5.71547 13.75 3.71714C17.1485 1.75547 22.605 4.07235 28.3227 9.94131L29.1019 10.7411L28.3227 11.5409C26.291 13.6529 24.4348 15.9269 22.7723 18.3403L22.4629 18.7826L21.9244 18.8284C19 19.0589 16.0992 19.5264 13.2504 20.2263L12.1688 20.499ZM16.5138 5.30527C15.8996 5.30527 15.3565 5.43818 14.8981 5.70172C12.6202 7.01485 12.2169 11.5798 13.7867 17.7398C16.2288 17.1966 18.7036 16.813 21.1956 16.5917C22.6335 14.5473 24.2044 12.5997 25.8981 10.7617C22.3231 7.28068 18.9383 5.30527 16.5138 5.30527ZM38.4885 51.9682C38.4863 51.9682 38.4863 51.9682 38.4885 51.9682C35.2229 51.9682 31.0292 49.5092 26.6773 45.0405L25.8981 44.2407L26.6773 43.4409C28.7084 41.3282 30.5639 39.0535 32.2254 36.6392L32.5348 36.1969L33.071 36.1511C35.9969 35.9218 38.8993 35.4551 41.7496 34.7555L42.8313 34.4828L43.1383 35.5553C45.4002 43.5394 44.715 49.2663 41.25 51.2623C40.4083 51.7382 39.4553 51.9818 38.4885 51.9682ZM29.1019 44.2201C32.6769 47.7011 36.0617 49.6765 38.4863 49.6765H38.4885C39.1004 49.6765 39.6458 49.5436 40.1019 49.2801C42.3798 47.9669 42.7854 43.3996 41.2133 37.2396C38.7706 37.7837 36.2949 38.1672 33.8021 38.3878C32.366 40.4336 30.7958 42.382 29.1019 44.2201ZM42.8313 20.499L41.7496 20.2263C38.8997 19.5244 35.9972 19.0569 33.071 18.8284L32.5348 18.7826L32.2254 18.3403C30.5648 15.9261 28.7092 13.6521 26.6773 11.5409L25.8981 10.7411L26.6773 9.94131C32.3927 4.07464 37.8469 1.75777 41.25 3.71714C44.715 5.71547 45.4025 11.4401 43.1383 19.4265L42.8313 20.499ZM33.8021 16.5917C36.4192 16.8301 38.9056 17.2173 41.2133 17.7398C42.7854 11.5798 42.3798 7.01485 40.1019 5.70172C37.8377 4.39318 33.5821 6.39839 29.1019 10.7617C30.7948 12.5998 32.365 14.5474 33.8021 16.5917ZM16.5138 51.9682C15.5462 51.9822 14.5923 51.7386 13.75 51.2623C10.285 49.2663 9.5975 43.5417 11.864 35.5553L12.1665 34.4828L13.2481 34.7555C15.895 35.4224 18.8146 35.8921 21.9221 36.1511L22.4606 36.1969L22.7677 36.6392C24.4304 39.0531 26.2867 41.3278 28.3181 43.4409L29.0973 44.2407L28.3181 45.0405C23.9685 49.5092 19.7748 51.9682 16.5138 51.9682ZM13.7867 37.2396C12.2146 43.3996 12.6202 47.9669 14.8981 49.2801C17.16 50.5703 21.4133 48.5811 25.8981 44.2201C24.205 42.3806 22.6342 40.4324 21.1956 38.3878C18.7035 38.1674 16.2286 37.7839 13.7867 37.2396ZM27.5 38.6788C25.614 38.6788 23.6752 38.5963 21.7342 38.4359L21.1956 38.3901L20.8863 37.9478C19.7883 36.3702 18.7562 34.7478 17.7925 33.0849C16.8317 31.4205 15.9402 29.7171 15.1204 27.979L14.8913 27.4909L15.1204 27.0028C15.9401 25.2646 16.8315 23.5612 17.7925 21.8969C18.7413 20.2561 19.784 18.6198 20.8863 17.034L21.1956 16.5917L21.7342 16.5459C25.5719 16.2205 29.4304 16.2205 33.2681 16.5459L33.8044 16.5917L34.1115 17.034C36.3096 20.1898 38.239 23.5244 39.8796 27.0028L40.111 27.4909L39.8796 27.979C38.243 31.4594 36.3133 34.7944 34.1115 37.9478L33.8044 38.3901L33.2681 38.4359C31.3271 38.5963 29.386 38.6788 27.5 38.6788ZM22.4652 36.1946C25.8569 36.449 29.1431 36.449 32.5371 36.1946C34.4319 33.4246 36.1142 30.515 37.5696 27.4909C36.1168 24.4649 34.4336 21.5551 32.5348 18.7871C29.1831 18.5328 25.8169 18.5328 22.4652 18.7871C20.5656 21.5546 18.8823 24.4645 17.4304 27.4909C18.8874 30.5147 20.5704 33.4242 22.4652 36.1946Z" fill="#FF6B00"/>
</svg>
